<?xml version="1.0" encoding="UTF-8"?>
<svg xmlns="http://www.w3.org/2000/svg" width="16" height="16" viewBox="0 0 16 16">
  <!-- Hurtbox3D class icon: shield over a rounded receiver box. -->
  <g fill="#5aa8e0" fill-rule="evenodd">
    <path opacity=".18" d="M3 4h10a1 1 0 0 1 1 1v6a1 1 0 0 1-1 1H3a1 1 0 0 1-1-1V5a1 1 0 0 1 1-1Z"/>
    <path d="M3 5h10v6H3V5Zm1 1v4h8V6H4Z" opacity=".35"/>
    <!-- Shield -->
    <path d="M8 3.5 11.5 5v2.6c0 2.2-1.6 3.9-3.5 4.9-1.9-1-3.5-2.7-3.5-4.9V5L8 3.5Zm0 1.3v7.4c1.2-.8 2.2-2 2.2-3.6V5.6L8 4.8Z" opacity=".8"/>
  </g>
</svg>
